<?xml version="1.0" encoding="UTF-8" standalone="no"?><!DOCTYPE svg PUBLIC "-//W3C//DTD SVG 1.1//EN" "http://www.w3.org/Graphics/SVG/1.1/DTD/svg11.dtd"><svg width="100%" height="100%" viewBox="0 0 16667 16667" version="1.1" xmlns="http://www.w3.org/2000/svg" xmlns:xlink="http://www.w3.org/1999/xlink" xml:space="preserve" xmlns:serif="http://www.serif.com/" style="fill-rule:evenodd;clip-rule:evenodd;stroke-linejoin:round;stroke-miterlimit:2;"><circle cx="8333.33" cy="8333.33" r="8333.33" style="fill:#fff;"/><clipPath id="_clip1"><circle cx="8333.33" cy="8333.33" r="8333.33"/></clipPath><g clip-path="url(#_clip1)"><rect x="0" y="0" width="16666.7" height="16666.7" style="fill:#5165f6;"/><path d="M8758.58,3513.89c0,-233.28 -191.962,-425.242 -425.246,-425.242c-233.283,0 -425.245,191.963 -425.245,425.242l-0,850.491c-0,233.284 191.962,425.246 425.245,425.246c233.284,0 425.246,-191.962 425.246,-425.246l0,-850.491Zm3560.72,1258.73c164.708,164.916 164.708,436.095 0,601.012l-601.017,601.579c-79.266,76.634 -185.312,119.513 -295.566,119.513c-233.284,-0 -425.246,-191.963 -425.246,-425.242c-0,-110.117 42.771,-216.041 119.233,-295.283l601.013,-601.579c79.729,-79.775 188.004,-124.646 300.791,-124.646c112.788,-0 221.063,44.871 300.792,124.646Zm-7053.42,4552.96c-34.137,-185.85 -51.312,-374.421 -51.312,-563.383c-0,-1710.74 1407.73,-3118.46 3118.46,-3118.46c1710.74,0 3118.46,1407.73 3118.46,3118.46c-0,188.962 -17.175,377.533 -51.313,563.383l2177.82,0c233.283,0 425.246,191.962 425.246,425.246c-0,233.283 -191.963,425.246 -425.246,425.246l-10489.4,-0c-233.283,-0 -425.246,-191.963 -425.246,-425.246c0,-233.283 191.963,-425.246 425.246,-425.246l2177.26,0Zm90.721,1700.98c-233.283,0 -425.246,191.963 -425.246,425.246c0,233.279 191.963,425.242 425.246,425.242l5953.42,-0c233.283,-0 425.246,-191.963 425.246,-425.242c-0,-233.283 -191.963,-425.246 -425.246,-425.246l-5953.42,0Zm2267.97,1700.98c-233.283,0 -425.246,191.963 -425.246,425.246c0,233.279 191.963,425.242 425.246,425.242l1417.48,-0c233.284,-0 425.246,-191.963 425.246,-425.242c0,-233.283 -191.962,-425.246 -425.246,-425.246l-1417.48,0Zm-3277.22,-7954.92c164.917,-164.713 436.1,-164.713 601.017,-0l601.579,601.012c83.017,80.109 129.962,190.646 129.962,306.013c0.001,233.283 -191.962,425.246 -425.245,425.246c-115.225,-0 -225.642,-46.834 -305.729,-129.68l-601.584,-601.012c-79.775,-79.725 -124.646,-188.004 -124.646,-300.788c0,-112.787 44.871,-221.066 124.646,-300.791Z" style="fill:#fff;fill-rule:nonzero;"/></g></svg>